<svg width="37" height="37" viewBox="0 0 37 37" fill="none" xmlns="http://www.w3.org/2000/svg">
<path d="M36.5834 25.1238L32.9337 23L19.7547 30.663C18.9795 31.1151 18.0272 31.1151 17.2521 30.663L4.07636 23L0.423355 25.1238C0.161543 25.2764 0 25.56 0 25.8672C0 26.1744 0.161543 26.458 0.423355 26.6105L18.0829 36.8872C18.3414 37.0376 18.6586 37.0376 18.9171 36.8872L36.5766 26.6105C36.8385 26.458 37 26.1744 37 25.8672C37 25.56 36.8385 25.2764 36.5766 25.1238H36.5834Z" fill="#5454D4"/>
<path d="M36.5834 18.1238L32.9337 16L19.7547 23.663C18.9795 24.1151 18.0272 24.1151 17.2521 23.663L4.07636 16L0.423355 18.1238C0.161543 18.2764 0 18.56 0 18.8672C0 19.1744 0.161543 19.458 0.423355 19.6105L18.0829 29.8872C18.3414 30.0376 18.6586 30.0376 18.9171 29.8872L36.5766 19.6105C36.8385 19.458 37 19.1744 37 18.8672C37 18.56 36.8385 18.2764 36.5766 18.1238H36.5834Z" fill="#D8D7E6"/>
<path d="M36.5766 10.2655L18.9171 0.111422C18.6586 -0.0371407 18.3414 -0.0371407 18.0829 0.111422L0.423355 10.2655C0.161543 10.4162 0 10.6965 0 11C0 11.3035 0.161543 11.5838 0.423355 11.7345L18.0829 21.8886C18.3414 22.0371 18.6586 22.0371 18.9171 21.8886L36.5766 11.7345C36.8385 11.5838 37 11.3035 37 11C37 10.6965 36.8385 10.4162 36.5766 10.2655Z" fill="#5454D4"/>
</svg>
