<svg width="36" height="36" viewBox="0 0 36 36" fill="none" xmlns="http://www.w3.org/2000/svg">
<path d="M1.57895 7.54839H15V6H0.789474C0.352895 6 0 6.34606 0 6.77419V29.2258C0 29.6539 0.352895 30 0.789474 30H3.15789V28.4516H1.57895V7.54839Z" fill="#D8D7E6"/>
<path fill-rule="evenodd" clip-rule="evenodd" d="M5.76923 22H14.2308C14.6562 22 15 22.3477 15 22.7778V35.2222C15 35.6523 14.6562 36 14.2308 36H5.76923C5.34385 36 5 35.6523 5 35.2222V22.7778C5 22.3477 5.34385 22 5.76923 22ZM8.84615 32.5C8.84615 33.144 9.36308 33.6667 10 33.6667C10.6369 33.6667 11.1538 33.144 11.1538 32.5C11.1538 31.856 10.6369 31.3333 10 31.3333C9.36308 31.3333 8.84615 31.856 8.84615 32.5Z" fill="#5454D4"/>
<path fill-rule="evenodd" clip-rule="evenodd" d="M17.5789 0H29.4211C30.2918 0 31 0.693136 31 1.54545V15.4545C31 16.3069 30.2918 17 29.4211 17H17.5789C16.7082 17 16 16.3069 16 15.4545V1.54545C16 0.693136 16.7082 0 17.5789 0ZM22.3158 13.5227C22.3158 14.1625 22.8463 14.6818 23.5 14.6818C24.1537 14.6818 24.6842 14.1625 24.6842 13.5227C24.6842 12.8829 24.1537 12.3636 23.5 12.3636C22.8463 12.3636 22.3158 12.8829 22.3158 13.5227Z" fill="#5454D4"/>
<path d="M35.2 6H32.8V7.55556H34.4V28.5556H16V34H24C24.4416 34 24.8 33.6516 24.8 33.2222C24.8 32.7929 24.4416 32.4444 24 32.4444H20.8V30.1111H35.2C35.6424 30.1111 36 29.7634 36 29.3333V6.77778C36 6.34767 35.6424 6 35.2 6Z" fill="#D8D7E6"/>
</svg>
